<svg id="svg" version="1.1" xmlns="http://www.w3.org/2000/svg" xmlns:xlink="http://www.w3.org/1999/xlink" width="400" height="400" viewBox="0, 0, 400,400"><g id="svgg"><path id="path0" d="M263.800 64.333 C 259.360 66.322,257.571 67.989,255.358 72.198 C 254.895 73.079,253.613 75.510,252.509 77.600 C 251.405 79.690,249.558 83.200,248.404 85.400 C 247.250 87.600,245.742 90.449,245.053 91.731 C 244.364 93.012,242.989 95.603,241.999 97.488 C 238.776 103.620,236.706 104.055,228.927 100.241 C 226.327 98.966,223.840 97.773,223.400 97.590 C 214.825 94.023,205.429 92.609,194.600 93.255 C 187.738 93.665,180.052 95.414,174.400 97.850 C 171.789 98.975,165.803 102.083,165.169 102.643 C 164.821 102.949,164.399 103.200,164.231 103.200 C 163.337 103.200,156.454 108.713,152.763 112.385 C 146.973 118.145,144.243 121.902,140.402 129.400 C 138.687 132.746,138.179 133.987,136.798 138.200 C 133.395 148.578,133.142 163.311,136.197 173.200 C 136.570 174.410,136.970 175.897,137.084 176.505 C 137.199 177.113,137.451 177.708,137.646 177.829 C 137.841 177.949,138.000 178.339,138.000 178.695 C 138.000 180.995,144.901 192.198,149.896 198.005 C 150.366 198.552,151.123 199.433,151.577 199.963 C 155.437 204.463,155.396 210.647,151.475 215.437 C 143.705 224.930,136.296 236.568,135.127 241.117 C 131.978 253.374,135.445 260.936,146.200 265.264 C 151.190 267.272,160.937 267.474,182.400 266.016 C 189.034 265.565,208.171 265.558,212.200 266.006 C 213.960 266.201,216.570 266.473,218.000 266.609 C 232.563 268.003,239.998 274.599,238.385 284.694 C 237.415 290.767,232.850 294.503,223.800 296.632 C 221.123 297.261,180.540 297.581,179.568 296.980 C 179.401 296.877,175.425 296.514,170.732 296.173 C 166.040 295.832,160.940 295.383,159.400 295.176 C 154.221 294.480,144.923 294.256,143.502 294.793 C 141.467 295.563,139.470 296.551,138.806 297.117 C 136.860 298.778,135.200 300.662,135.200 301.209 C 135.200 301.556,134.975 302.065,134.700 302.340 C 133.666 303.374,134.060 309.162,135.309 311.287 C 136.428 313.191,138.955 315.254,140.800 315.770 C 141.350 315.924,142.160 316.200,142.600 316.382 C 145.280 317.494,150.006 317.656,165.800 317.177 C 176.962 316.838,187.243 316.796,199.800 317.039 C 227.382 317.574,232.612 317.483,236.800 316.400 C 243.055 314.782,245.785 313.674,250.000 311.041 C 253.671 308.749,258.800 304.020,258.800 302.928 C 258.800 302.782,259.064 302.372,259.386 302.016 C 261.565 299.608,264.463 291.575,265.166 285.995 C 266.637 274.322,259.768 260.911,249.200 254.824 C 245.856 252.899,243.005 251.536,240.761 250.792 C 239.352 250.325,237.840 249.788,237.400 249.599 C 233.621 247.973,206.421 245.936,197.113 246.581 C 191.769 246.951,164.917 247.513,162.888 247.296 C 158.274 246.804,157.621 241.822,161.557 237.134 C 162.241 236.320,162.800 235.477,162.800 235.260 C 162.800 235.044,162.954 234.807,163.141 234.733 C 163.329 234.660,164.721 232.890,166.235 230.800 C 167.749 228.710,169.170 226.788,169.394 226.528 C 169.617 226.268,170.610 224.957,171.600 223.614 C 174.528 219.641,179.874 217.343,182.103 219.098 C 182.545 219.447,184.261 219.995,188.800 221.239 C 197.353 223.584,211.493 223.837,219.600 221.791 C 221.030 221.430,222.787 221.040,223.504 220.923 C 224.221 220.807,224.906 220.551,225.027 220.356 C 225.148 220.160,225.524 220.000,225.863 220.000 C 226.202 220.000,227.046 219.754,227.740 219.454 C 228.433 219.154,229.810 218.572,230.800 218.161 C 239.683 214.473,249.811 206.691,255.216 199.400 C 256.195 198.080,257.088 196.910,257.201 196.800 C 258.742 195.305,264.800 183.719,264.800 182.269 C 264.800 181.989,264.943 181.589,265.118 181.380 C 265.397 181.046,266.047 179.050,267.196 175.000 C 268.994 168.662,269.346 153.997,267.848 147.800 C 267.476 146.260,267.022 144.370,266.839 143.600 C 265.312 137.182,260.860 128.507,255.443 121.392 C 252.276 117.233,252.000 116.710,252.000 114.867 C 252.000 111.666,252.363 111.292,265.600 100.832 C 269.230 97.964,272.380 95.469,272.600 95.289 C 272.820 95.110,274.382 93.843,276.071 92.476 C 283.494 86.465,286.018 81.045,284.195 75.034 C 281.392 65.793,271.789 60.754,263.800 64.333 M213.134 109.589 C 222.939 110.717,232.863 116.747,237.764 124.555 C 243.636 133.911,245.511 147.349,242.543 158.800 C 241.318 163.525,240.394 166.600,239.597 168.600 C 235.503 178.872,232.346 184.479,226.756 191.400 C 223.784 195.079,217.876 200.567,216.244 201.162 C 216.000 201.251,215.260 201.716,214.600 202.195 C 213.940 202.673,212.320 203.566,211.000 204.177 C 209.680 204.789,208.291 205.447,207.914 205.640 C 206.568 206.326,202.089 207.292,197.667 207.850 C 194.507 208.248,185.879 206.863,183.505 205.577 C 183.123 205.369,182.633 205.200,182.416 205.200 C 182.199 205.200,180.982 204.717,179.711 204.126 C 170.333 199.766,162.865 191.352,160.248 182.200 C 159.871 180.880,159.378 179.170,159.153 178.400 C 158.634 176.623,158.919 162.525,159.529 159.800 C 160.163 156.967,161.740 151.635,162.368 150.200 C 162.561 149.760,163.007 148.743,163.359 147.940 C 163.712 147.136,164.000 146.357,164.000 146.208 C 164.000 145.707,167.624 138.636,168.216 137.983 C 168.537 137.628,168.800 137.212,168.800 137.059 C 168.800 136.519,172.076 131.600,172.436 131.600 C 172.636 131.600,172.800 131.398,172.800 131.152 C 172.800 130.684,179.385 122.949,179.973 122.727 C 180.158 122.657,181.365 121.622,182.655 120.427 C 191.337 112.383,202.599 108.378,213.134 109.589 " stroke="none" fill="#1d1d15" fill-rule="evenodd"></path><path id="path1" d="M0.000 200.000 L 0.000 400.000 200.000 400.000 L 400.000 400.000 400.000 200.000 L 400.000 0.000 200.000 0.000 L 0.000 0.000 0.000 200.000 M275.800 63.835 C 278.752 65.234,282.348 68.834,283.759 71.803 C 284.176 72.681,284.671 73.713,284.859 74.095 C 287.338 79.143,283.158 88.538,276.268 93.401 C 275.195 94.158,274.447 94.756,272.600 96.331 C 272.160 96.706,271.080 97.547,270.200 98.200 C 268.573 99.407,264.978 102.273,264.180 103.000 C 263.939 103.220,262.892 104.030,261.854 104.800 C 260.817 105.570,259.300 106.784,258.484 107.498 C 257.668 108.211,256.460 109.175,255.800 109.640 C 252.324 112.086,251.988 115.851,254.920 119.500 C 259.005 124.582,265.200 134.885,265.200 136.597 C 265.200 136.893,265.500 137.735,265.868 138.468 C 267.109 140.944,267.200 141.188,267.200 142.021 C 267.200 142.478,267.393 143.213,267.628 143.653 C 270.313 148.670,270.302 171.352,267.611 176.379 C 267.385 176.802,267.200 177.599,267.200 178.150 C 267.200 178.702,267.020 179.264,266.800 179.400 C 266.580 179.536,266.400 179.924,266.400 180.263 C 266.400 180.602,266.112 181.536,265.759 182.340 C 265.407 183.143,264.969 184.160,264.787 184.600 C 264.186 186.053,261.985 190.585,261.488 191.396 C 261.220 191.833,260.191 193.453,259.203 194.996 C 258.214 196.538,257.314 198.009,257.203 198.263 C 256.693 199.429,250.520 206.043,247.428 208.737 C 245.074 210.787,240.094 214.400,239.621 214.400 C 239.390 214.400,239.200 214.559,239.200 214.753 C 239.200 214.948,238.885 215.206,238.500 215.328 C 238.115 215.449,237.170 215.907,236.400 216.345 C 234.140 217.631,229.175 219.832,226.800 220.601 C 225.590 220.993,223.921 221.558,223.092 221.857 C 222.262 222.155,221.058 222.400,220.416 222.400 C 219.773 222.400,219.149 222.558,219.030 222.751 C 218.809 223.109,217.703 223.251,209.685 223.951 C 203.238 224.514,190.084 223.144,187.221 221.611 C 186.798 221.385,186.001 221.200,185.450 221.200 C 184.898 221.200,184.352 221.046,184.235 220.857 C 182.525 218.090,172.000 221.062,172.000 224.311 C 172.000 224.475,171.373 225.327,170.608 226.204 C 169.842 227.082,169.210 227.980,169.204 228.200 C 169.198 228.420,168.565 229.263,167.797 230.073 C 167.028 230.884,166.400 231.682,166.400 231.848 C 166.400 232.013,165.680 233.002,164.800 234.046 C 163.920 235.090,163.200 236.093,163.200 236.276 C 163.200 236.459,162.795 237.056,162.300 237.604 C 159.162 241.077,159.017 244.855,161.971 246.187 C 163.673 246.954,162.786 246.960,189.914 246.021 C 208.435 245.380,229.858 246.451,235.600 248.304 C 236.370 248.553,238.080 249.065,239.400 249.442 C 240.720 249.820,242.070 250.262,242.400 250.425 C 242.730 250.588,244.401 251.402,246.113 252.235 C 247.825 253.068,249.422 253.985,249.662 254.274 C 249.902 254.563,250.346 254.800,250.649 254.800 C 250.952 254.800,251.200 254.968,251.200 255.173 C 251.200 255.378,251.528 255.650,251.930 255.778 C 254.006 256.437,263.200 267.314,263.200 269.112 C 263.200 269.345,263.453 270.045,263.763 270.668 C 264.729 272.610,265.137 273.751,265.385 275.200 C 265.517 275.970,265.812 277.680,266.041 279.000 C 266.483 281.551,266.282 285.708,265.559 289.000 C 264.998 291.555,263.958 295.225,263.575 296.000 C 263.412 296.330,262.723 297.770,262.045 299.200 C 260.240 303.003,252.949 311.200,251.370 311.200 C 251.247 311.200,250.557 311.650,249.836 312.200 C 249.114 312.750,248.226 313.200,247.862 313.200 C 247.498 313.200,247.200 313.345,247.200 313.523 C 247.200 314.199,238.449 317.200,236.478 317.200 C 235.804 317.200,234.745 317.400,234.126 317.645 C 232.510 318.283,145.691 318.291,144.499 317.653 C 144.034 317.404,143.270 317.200,142.802 317.200 C 141.460 317.200,137.519 315.192,136.200 313.837 C 131.030 308.523,133.196 298.517,140.223 295.253 C 140.870 294.953,141.760 294.505,142.200 294.260 C 143.354 293.615,153.400 293.435,156.660 294.000 C 159.808 294.546,164.623 294.986,174.000 295.584 C 177.630 295.815,183.120 296.182,186.200 296.398 C 206.557 297.830,223.548 296.707,230.397 293.479 C 239.951 288.975,240.327 275.367,231.022 270.853 C 229.202 269.970,227.337 269.259,226.200 269.016 C 225.540 268.875,223.740 268.491,222.200 268.163 C 214.534 266.532,193.511 266.084,176.600 267.191 C 167.343 267.798,154.517 267.919,151.400 267.430 C 147.496 266.818,143.020 265.099,140.406 263.208 C 133.600 258.285,131.519 250.841,134.255 241.200 C 134.897 238.940,134.985 238.719,136.129 236.500 C 136.498 235.785,137.099 234.615,137.465 233.900 C 138.371 232.130,142.952 225.189,143.867 224.200 C 144.275 223.760,145.848 221.690,147.363 219.600 C 148.878 217.510,150.271 215.740,150.459 215.667 C 150.646 215.593,150.800 215.356,150.800 215.140 C 150.800 214.924,151.250 214.157,151.800 213.436 C 152.350 212.714,152.800 211.862,152.800 211.542 C 152.800 211.222,152.989 210.771,153.221 210.539 C 155.236 208.524,152.874 202.306,148.091 197.037 C 143.005 191.433,138.316 183.204,136.219 176.200 C 135.824 174.880,135.343 173.487,135.150 173.105 C 134.958 172.723,134.800 171.724,134.800 170.885 C 134.800 170.046,134.624 169.184,134.408 168.968 C 133.228 167.788,132.959 150.005,134.057 145.800 C 134.286 144.920,134.559 143.570,134.662 142.800 C 134.765 142.030,134.993 141.040,135.169 140.600 C 135.344 140.160,135.807 138.720,136.197 137.400 C 137.323 133.587,141.201 125.229,142.247 124.361 C 142.551 124.108,142.800 123.654,142.800 123.351 C 142.800 123.048,142.980 122.800,143.200 122.800 C 143.420 122.800,143.600 122.610,143.600 122.379 C 143.600 120.351,154.320 109.112,160.297 104.872 C 165.040 101.508,171.976 97.600,173.203 97.600 C 173.428 97.600,173.923 97.446,174.305 97.257 C 174.687 97.069,175.540 96.650,176.200 96.327 C 176.860 96.004,178.210 95.516,179.200 95.243 C 180.190 94.969,181.630 94.546,182.400 94.302 C 190.830 91.631,211.304 91.673,216.347 94.372 C 216.787 94.607,217.522 94.800,217.979 94.800 C 218.437 94.800,219.123 94.962,219.505 95.159 C 219.887 95.356,221.010 95.827,222.000 96.205 C 222.990 96.584,225.995 97.970,228.678 99.285 C 234.875 102.324,238.841 102.598,239.770 100.050 C 239.900 99.693,240.786 97.960,241.739 96.200 C 242.692 94.440,244.376 91.280,245.480 89.178 C 246.585 87.077,248.082 84.287,248.808 82.978 C 250.409 80.091,250.678 79.571,250.966 78.800 C 251.089 78.470,251.904 76.940,252.777 75.400 C 253.651 73.860,254.747 71.814,255.214 70.854 C 258.568 63.951,268.732 60.486,275.800 63.835 M205.200 110.404 C 200.575 111.069,199.375 111.334,198.611 111.858 C 198.177 112.156,197.547 112.399,197.211 112.398 C 196.646 112.397,191.108 115.010,190.200 115.707 C 189.980 115.876,188.374 117.021,186.632 118.251 C 183.638 120.365,175.200 128.398,175.200 129.134 C 175.200 129.322,174.848 129.795,174.418 130.184 C 171.397 132.918,165.277 144.252,162.747 151.800 C 162.305 153.120,161.788 154.560,161.599 155.000 C 161.409 155.440,161.162 156.340,161.050 157.000 C 160.937 157.660,160.529 159.730,160.143 161.600 C 159.207 166.130,159.174 174.387,160.076 178.200 C 161.265 183.226,161.475 183.861,162.874 186.647 C 164.398 189.681,165.289 191.295,165.610 191.600 C 165.726 191.710,166.444 192.610,167.207 193.600 C 169.186 196.171,174.466 200.800,175.419 200.800 C 175.587 200.800,176.314 201.250,177.036 201.800 C 177.757 202.350,178.505 202.800,178.698 202.800 C 178.892 202.800,179.789 203.157,180.693 203.594 C 187.989 207.119,201.070 207.909,206.495 205.153 C 206.877 204.959,207.552 204.800,207.995 204.800 C 208.438 204.800,208.800 204.620,208.800 204.400 C 208.800 204.180,208.998 204.000,209.240 204.000 C 209.870 204.000,212.505 202.723,213.129 202.115 C 213.419 201.832,213.914 201.600,214.229 201.600 C 214.543 201.600,214.800 201.453,214.800 201.274 C 214.800 201.094,215.565 200.526,216.500 200.010 C 218.161 199.095,227.600 189.911,227.600 189.211 C 227.600 189.016,227.845 188.612,228.145 188.312 C 228.797 187.660,232.800 181.323,232.800 180.942 C 232.800 180.795,233.215 180.119,233.723 179.438 C 234.537 178.347,235.219 177.005,236.387 174.200 C 236.570 173.760,237.099 172.546,237.561 171.502 C 238.589 169.183,240.328 164.301,240.805 162.400 C 242.525 155.531,242.585 155.008,242.572 146.800 C 242.560 139.002,242.212 135.766,241.184 133.905 C 240.973 133.523,240.800 132.758,240.800 132.205 C 240.800 131.652,240.620 131.200,240.400 131.200 C 240.180 131.200,240.000 130.970,240.000 130.689 C 240.000 128.414,231.516 117.200,229.794 117.200 C 229.536 117.200,229.004 116.847,228.614 116.415 C 227.985 115.720,227.120 115.193,224.029 113.622 C 222.110 112.646,221.713 112.488,220.491 112.220 C 219.786 112.065,219.106 111.772,218.981 111.569 C 218.855 111.366,218.212 111.200,217.550 111.200 C 216.889 111.200,216.044 111.042,215.674 110.848 C 214.685 110.332,207.749 110.038,205.200 110.404 " stroke="none" fill="#ebe3d3" fill-rule="evenodd"></path><path id="path2" d="M267.700 63.091 C 268.525 63.178,269.875 63.178,270.700 63.091 C 271.525 63.005,270.850 62.934,269.200 62.934 C 267.550 62.934,266.875 63.005,267.700 63.091 M262.488 64.464 C 260.106 65.634,255.985 69.272,256.013 70.179 C 256.025 70.555,256.856 69.706,258.146 68.000 C 258.943 66.946,261.333 65.382,263.600 64.430 C 266.058 63.399,266.391 63.193,265.567 63.215 C 265.255 63.223,263.869 63.785,262.488 64.464 M275.200 64.294 C 277.367 65.127,281.113 68.759,282.736 71.600 C 283.427 72.810,283.994 73.571,283.996 73.292 C 284.012 71.168,277.067 63.916,275.128 64.032 C 274.758 64.054,274.780 64.132,275.200 64.294 M255.490 71.073 C 254.647 72.527,249.017 83.252,245.086 90.896 C 244.097 92.820,243.429 94.306,243.602 94.199 C 243.775 94.092,244.454 92.968,245.112 91.702 C 245.769 90.436,247.250 87.600,248.404 85.400 C 249.558 83.200,251.352 79.780,252.390 77.800 C 253.428 75.820,254.674 73.504,255.158 72.653 C 255.643 71.802,255.958 71.025,255.860 70.926 C 255.761 70.828,255.595 70.894,255.490 71.073 M284.034 74.400 C 284.046 74.730,284.211 75.360,284.400 75.800 L 284.744 76.600 284.766 75.800 C 284.778 75.360,284.613 74.730,284.400 74.400 C 284.055 73.867,284.015 73.867,284.034 74.400 M284.909 78.400 C 284.909 79.390,284.987 79.795,285.082 79.300 C 285.178 78.805,285.178 77.995,285.082 77.500 C 284.987 77.005,284.909 77.410,284.909 78.400 M284.215 81.600 C 283.391 85.377,281.163 88.353,276.071 92.476 C 274.382 93.843,272.820 95.110,272.600 95.289 C 272.380 95.469,269.230 97.964,265.600 100.832 C 255.186 109.061,253.322 110.673,252.640 112.041 C 251.950 113.423,251.771 116.611,252.362 116.976 C 252.567 117.103,252.633 116.519,252.513 115.628 C 252.089 112.465,253.912 110.191,260.999 105.036 C 261.880 104.396,262.690 103.765,262.800 103.635 C 262.981 103.421,268.106 99.268,269.590 98.134 C 280.886 89.497,285.783 83.842,284.692 80.697 C 284.598 80.423,284.383 80.830,284.215 81.600 M194.200 92.784 C 192.575 92.926,194.924 93.032,199.800 93.039 C 206.132 93.047,207.314 92.980,204.600 92.767 C 200.442 92.441,198.112 92.445,194.200 92.784 M186.400 93.800 C 183.301 94.500,180.944 95.254,182.600 95.016 C 185.090 94.659,190.120 93.614,190.322 93.411 C 190.658 93.076,188.791 93.261,186.400 93.800 M209.000 93.600 C 209.440 93.789,210.340 93.938,211.000 93.932 C 212.170 93.921,212.175 93.912,211.200 93.600 C 209.733 93.130,207.906 93.130,209.000 93.600 M213.600 94.468 C 216.085 95.155,217.553 95.259,215.600 94.610 C 214.610 94.281,213.440 94.028,213.000 94.047 C 212.542 94.067,212.798 94.247,213.600 94.468 M241.392 97.790 C 239.312 101.888,235.120 103.691,232.577 101.581 C 232.249 101.309,231.880 101.187,231.756 101.311 C 230.509 102.557,237.407 102.995,239.047 101.773 C 240.069 101.012,243.435 95.302,243.075 94.941 C 242.988 94.855,242.231 96.137,241.392 97.790 M179.000 95.701 C 177.309 96.286,175.340 97.180,175.716 97.191 C 176.221 97.205,181.200 95.548,181.200 95.365 C 181.200 95.110,180.319 95.244,179.000 95.701 M217.600 95.346 C 217.600 95.427,218.725 95.891,220.100 96.377 C 222.929 97.378,225.053 98.247,226.139 98.847 C 226.545 99.072,226.957 99.176,227.054 99.079 C 227.287 98.847,224.060 97.334,220.802 96.147 C 218.250 95.217,217.600 95.055,217.600 95.346 M169.228 99.837 C 160.202 104.580,153.406 110.197,146.882 118.309 C 145.237 120.353,143.985 122.119,144.099 122.233 C 144.213 122.347,145.253 121.126,146.409 119.520 C 150.102 114.391,162.323 103.200,164.231 103.200 C 164.399 103.200,164.821 102.947,165.169 102.638 C 165.516 102.329,167.596 101.159,169.791 100.038 C 171.987 98.917,173.517 98.015,173.191 98.033 C 172.866 98.051,171.083 98.863,169.228 99.837 M227.600 99.391 C 227.600 99.637,230.899 101.235,231.065 101.069 C 231.185 100.948,228.096 99.200,227.762 99.200 C 227.673 99.200,227.600 99.286,227.600 99.391 M205.000 109.567 C 203.900 109.699,205.790 109.812,209.200 109.818 C 213.403 109.824,214.627 109.740,213.000 109.557 C 210.145 109.236,207.723 109.239,205.000 109.567 M198.892 110.890 C 195.858 111.889,195.827 112.318,198.856 111.383 C 202.884 110.139,203.077 110.063,202.200 110.064 C 201.760 110.064,200.271 110.436,198.892 110.890 M216.200 110.394 C 217.712 111.037,221.288 112.045,221.457 111.876 C 221.626 111.708,220.656 111.312,217.972 110.456 C 216.314 109.927,214.992 109.881,216.200 110.394 M193.000 113.333 C 189.108 115.399,185.163 118.104,182.655 120.428 C 181.365 121.622,180.158 122.657,179.973 122.727 C 179.385 122.949,172.800 130.684,172.800 131.152 C 172.800 131.398,172.636 131.600,172.436 131.600 C 172.236 131.600,171.336 132.766,170.436 134.190 C 168.635 137.042,168.171 138.332,169.859 135.793 C 174.647 128.593,179.471 123.373,186.664 117.607 C 187.646 116.820,192.286 114.118,194.100 113.277 C 195.145 112.792,196.000 112.307,196.000 112.198 C 196.000 111.830,195.408 112.054,193.000 113.333 M224.600 113.517 C 230.094 116.453,233.861 119.741,237.255 124.563 C 239.489 127.736,239.853 127.782,237.840 124.636 C 235.674 121.249,230.398 116.161,227.406 114.572 C 226.963 114.337,225.739 113.662,224.686 113.072 C 223.633 112.482,222.553 112.005,222.286 112.011 C 222.019 112.016,223.060 112.694,224.600 113.517 M252.800 117.776 C 252.800 117.930,253.942 119.528,255.338 121.328 C 257.634 124.287,260.800 128.958,260.800 129.385 C 260.800 129.778,262.514 132.419,262.668 132.265 C 262.981 131.952,257.568 123.096,256.395 122.000 C 256.277 121.890,255.420 120.831,254.490 119.648 C 253.561 118.464,252.800 117.622,252.800 117.776 M142.559 124.465 C 139.981 128.550,135.961 137.852,136.021 139.597 C 136.042 140.233,136.611 138.839,137.813 135.200 C 138.492 133.145,141.128 127.727,143.116 124.300 C 144.297 122.265,143.868 122.392,142.559 124.465 M239.200 127.725 C 239.200 128.111,241.161 131.728,241.179 131.375 C 241.204 130.861,239.660 127.600,239.391 127.600 C 239.286 127.600,239.200 127.656,239.200 127.725 M241.372 132.900 C 242.006 135.056,242.742 137.877,242.909 138.800 C 243.080 139.737,243.094 139.727,243.146 138.643 C 243.203 137.420,241.727 132.000,241.336 132.000 C 241.210 132.000,241.226 132.405,241.372 132.900 M262.800 132.878 C 262.800 133.005,263.069 133.624,263.398 134.254 C 263.726 134.884,263.990 135.130,263.985 134.800 C 263.979 134.470,263.710 133.851,263.387 133.424 C 263.064 132.996,262.800 132.751,262.800 132.878 M264.802 137.359 C 264.798 138.006,266.510 142.424,266.694 142.240 C 266.894 142.039,266.076 139.540,265.305 138.000 C 265.030 137.450,264.804 137.162,264.802 137.359 M168.055 138.134 C 167.415 138.905,163.907 146.040,164.082 146.215 C 164.163 146.296,165.236 144.391,166.467 141.981 C 167.699 139.571,168.659 137.600,168.602 137.600 C 168.545 137.600,168.299 137.840,168.055 138.134 M135.488 140.933 C 135.010 142.149,135.124 143.173,135.639 142.287 C 135.867 141.896,135.991 141.266,135.915 140.887 C 135.788 140.260,135.751 140.264,135.488 140.933 M243.390 146.916 C 243.384 150.262,243.498 152.460,243.643 151.800 C 243.993 150.199,244.015 142.380,243.672 141.516 C 243.522 141.140,243.395 143.570,243.390 146.916 M266.969 143.800 C 267.252 145.729,267.915 147.882,267.953 147.000 C 267.972 146.560,267.719 145.390,267.390 144.400 C 267.000 143.226,266.854 143.017,266.969 143.800 M134.464 146.002 C 134.169 147.653,134.007 149.543,134.104 150.202 C 134.235 151.091,134.296 150.925,134.340 149.560 C 134.373 148.548,134.593 147.165,134.829 146.488 C 135.065 145.811,135.200 144.749,135.129 144.128 C 135.045 143.393,134.813 144.047,134.464 146.002 M163.262 148.121 C 162.979 148.825,162.608 149.670,162.438 150.000 C 162.268 150.330,161.814 151.680,161.428 153.000 C 161.043 154.320,160.564 155.813,160.364 156.319 C 159.971 157.310,159.867 158.666,160.210 158.324 C 160.325 158.208,160.779 156.783,161.218 155.157 C 161.968 152.376,162.746 150.179,163.715 148.101 C 163.946 147.606,164.054 147.121,163.955 147.022 C 163.857 146.924,163.545 147.418,163.262 148.121 M268.056 148.800 C 268.056 149.350,268.211 150.160,268.400 150.600 C 268.713 151.329,268.744 151.312,268.744 150.400 C 268.744 149.850,268.589 149.040,268.400 148.600 C 268.087 147.871,268.056 147.888,268.056 148.800 M133.750 156.600 C 133.751 159.020,133.816 159.958,133.896 158.685 C 133.976 157.412,133.975 155.432,133.894 154.285 C 133.814 153.138,133.749 154.180,133.750 156.600 M268.924 160.200 C 268.925 166.712,268.975 167.429,269.189 164.054 C 269.334 161.774,269.334 158.174,269.188 156.054 C 268.982 153.058,268.923 153.981,268.924 160.200 M242.705 155.400 C 242.545 156.500,242.320 158.030,242.204 158.800 C 242.038 159.910,242.124 159.800,242.619 158.266 C 242.963 157.202,243.188 155.672,243.120 154.866 C 243.001 153.461,242.983 153.484,242.705 155.400 M159.446 160.200 C 159.294 161.080,159.105 163.150,159.025 164.800 C 158.945 166.450,158.949 167.170,159.034 166.400 C 159.119 165.630,159.395 163.812,159.647 162.359 C 159.900 160.907,160.020 159.467,159.914 159.159 C 159.808 158.852,159.598 159.320,159.446 160.200 M241.429 161.429 C 241.281 162.015,241.251 162.584,241.361 162.694 C 241.471 162.804,241.681 162.415,241.829 161.829 C 241.976 161.242,242.006 160.673,241.896 160.563 C 241.786 160.453,241.576 160.842,241.429 161.429 M134.212 164.200 C 134.289 165.740,134.537 167.720,134.762 168.600 C 135.224 170.408,135.124 169.080,134.400 163.800 L 134.071 161.400 134.212 164.200 M240.436 164.836 C 239.796 166.974,240.110 167.289,240.800 165.200 C 241.091 164.318,241.239 163.506,241.129 163.395 C 241.018 163.285,240.707 163.934,240.436 164.836 M239.213 168.487 C 238.942 169.209,238.564 170.160,238.373 170.600 C 236.445 175.057,236.000 176.133,236.000 176.339 C 236.000 176.939,237.146 174.744,238.161 172.200 C 238.775 170.660,239.471 168.995,239.706 168.501 C 239.942 168.006,240.038 167.505,239.921 167.388 C 239.804 167.270,239.485 167.765,239.213 168.487 M268.219 169.927 C 268.055 170.877,268.017 171.750,268.134 171.868 C 268.426 172.159,268.926 169.373,268.700 168.721 C 268.600 168.435,268.384 168.977,268.219 169.927 M135.227 171.040 C 135.212 171.282,135.361 172.002,135.559 172.640 C 135.756 173.278,136.210 174.790,136.568 176.000 C 137.253 178.315,137.983 179.796,137.994 178.895 C 137.997 178.617,137.835 178.077,137.633 177.695 C 137.432 177.313,136.969 175.920,136.605 174.600 C 135.867 171.920,135.268 170.373,135.227 171.040 M267.485 173.500 C 266.772 176.750,266.748 177.476,267.412 175.673 C 267.762 174.723,267.986 173.553,267.909 173.073 C 267.797 172.370,267.714 172.454,267.485 173.500 M158.990 175.800 C 159.055 177.120,159.305 178.830,159.546 179.600 C 160.027 181.135,159.998 180.804,159.176 175.400 L 158.872 173.400 158.990 175.800 M235.493 177.073 C 235.391 177.253,234.721 178.480,234.006 179.800 C 228.263 190.395,219.844 199.227,211.352 203.565 C 209.618 204.450,208.412 205.181,208.671 205.187 C 209.237 205.203,214.314 202.592,215.184 201.838 C 215.523 201.544,216.000 201.236,216.244 201.152 C 219.584 200.009,229.307 189.153,233.158 182.269 C 233.549 181.571,234.356 180.123,234.953 179.052 C 235.550 177.981,235.957 177.024,235.859 176.926 C 235.761 176.827,235.596 176.894,235.493 177.073 M265.960 179.261 C 265.688 180.217,265.315 181.171,265.133 181.380 C 264.950 181.589,264.800 181.989,264.800 182.269 C 264.800 183.719,258.742 195.305,257.201 196.800 C 257.088 196.910,256.195 198.080,255.216 199.400 C 249.839 206.653,233.601 218.800,229.283 218.800 C 229.068 218.800,228.376 219.069,227.746 219.398 C 225.330 220.657,227.777 219.921,231.606 218.236 C 246.146 211.837,258.173 199.532,264.260 184.829 C 266.080 180.431,266.908 177.975,266.656 177.723 C 266.546 177.613,266.233 178.305,265.960 179.261 M138.004 179.905 C 138.002 180.183,138.173 180.723,138.384 181.105 C 138.595 181.487,139.284 182.880,139.916 184.200 C 141.499 187.510,144.478 192.247,145.574 193.200 C 145.701 193.310,146.337 194.120,146.988 195.000 C 147.639 195.880,148.394 196.829,148.667 197.110 C 149.990 198.471,152.038 201.184,152.962 202.801 C 153.528 203.790,153.993 204.436,153.995 204.235 C 154.001 203.810,152.051 200.409,151.426 199.753 C 147.976 196.136,142.406 188.227,140.223 183.844 C 139.005 181.400,138.007 179.627,138.004 179.905 M160.038 181.400 C 159.831 184.504,165.813 194.025,170.512 198.069 C 174.326 201.351,180.751 205.200,182.416 205.200 C 182.633 205.200,183.123 205.367,183.505 205.571 C 184.794 206.260,188.342 207.200,189.475 207.154 C 190.250 207.122,190.351 207.056,189.800 206.943 C 188.574 206.693,186.016 205.976,183.800 205.262 C 181.580 204.548,175.078 201.405,174.299 200.670 C 174.024 200.411,173.080 199.663,172.200 199.007 C 167.802 195.726,161.294 186.784,161.182 183.868 C 161.158 183.237,160.072 180.894,160.038 181.400 M154.127 207.600 C 154.124 210.337,154.155 210.453,154.480 208.926 C 154.687 207.955,154.688 206.696,154.483 205.926 C 154.192 204.833,154.130 205.127,154.127 207.600 M207.127 205.406 C 206.929 205.605,203.671 206.506,201.600 206.935 C 201.050 207.049,201.320 207.084,202.200 207.012 C 204.977 206.785,209.830 205.200,207.747 205.200 C 207.519 205.200,207.241 205.293,207.127 205.406 M192.200 207.613 C 193.793 208.001,198.345 207.999,199.600 207.610 C 200.193 207.427,198.648 207.305,195.800 207.311 C 192.931 207.317,191.483 207.439,192.200 207.613 M152.896 212.296 C 152.478 213.161,149.799 217.004,146.943 220.835 C 137.577 233.398,133.930 240.011,134.056 244.200 C 134.092 245.392,134.094 245.391,134.416 244.000 C 135.208 240.571,135.599 239.446,137.014 236.517 C 139.003 232.401,146.114 222.025,151.396 215.530 C 152.298 214.421,154.051 211.118,153.847 210.913 C 153.742 210.809,153.314 211.431,152.896 212.296 M176.200 219.390 C 174.449 220.206,173.470 221.113,171.437 223.800 C 170.439 225.120,169.479 226.380,169.305 226.600 C 167.775 228.530,165.959 231.290,166.504 230.856 C 166.880 230.557,168.437 228.577,169.964 226.456 C 175.027 219.427,177.357 218.216,182.800 219.786 C 183.703 220.046,183.689 220.012,182.654 219.437 C 181.247 218.655,177.832 218.630,176.200 219.390 M184.400 220.400 C 184.730 220.613,185.270 220.788,185.600 220.788 C 186.133 220.788,186.133 220.745,185.600 220.400 C 185.270 220.187,184.730 220.012,184.400 220.012 C 183.867 220.012,183.867 220.055,184.400 220.400 M188.000 221.390 C 188.990 221.719,190.160 221.972,190.600 221.953 C 191.482 221.915,189.329 221.252,187.400 220.969 C 186.617 220.854,186.826 221.000,188.000 221.390 M222.287 221.046 C 222.151 221.182,221.446 221.433,220.720 221.605 C 219.615 221.867,219.563 221.924,220.400 221.953 C 220.950 221.972,222.120 221.729,223.000 221.412 C 224.339 220.929,224.432 220.832,223.567 220.818 C 222.998 220.808,222.422 220.911,222.287 221.046 M192.200 222.400 C 192.640 222.589,193.450 222.744,194.000 222.744 C 194.912 222.744,194.929 222.713,194.200 222.400 C 193.760 222.211,192.950 222.056,192.400 222.056 C 191.488 222.056,191.471 222.087,192.200 222.400 M217.000 222.400 L 216.200 222.744 217.000 222.744 C 217.440 222.744,218.160 222.589,218.600 222.400 L 219.400 222.056 218.600 222.056 C 218.160 222.056,217.440 222.211,217.000 222.400 M197.800 223.229 C 200.868 223.722,210.277 223.719,213.400 223.225 C 215.276 222.927,214.752 222.899,211.000 223.095 C 205.124 223.403,205.216 223.403,199.800 223.094 C 196.221 222.890,195.848 222.916,197.800 223.229 M164.564 233.100 C 163.942 233.925,163.291 234.660,163.117 234.733 C 162.942 234.807,162.800 235.044,162.800 235.260 C 162.800 235.477,162.241 236.320,161.557 237.134 C 157.799 241.611,158.351 247.294,162.531 247.159 L 163.800 247.118 162.408 246.791 C 158.338 245.834,158.358 242.187,162.463 236.600 C 165.196 232.881,166.070 231.600,165.875 231.600 C 165.776 231.600,165.186 232.275,164.564 233.100 M133.740 248.800 C 133.740 250.670,133.809 251.435,133.893 250.500 C 133.977 249.565,133.977 248.035,133.893 247.100 C 133.809 246.165,133.740 246.930,133.740 248.800 M193.600 246.267 C 192.170 246.363,186.590 246.598,181.200 246.790 C 172.540 247.098,172.890 247.107,184.200 246.869 C 200.092 246.535,204.801 246.533,215.400 246.856 C 220.854 247.022,222.046 247.002,218.800 246.799 C 212.016 246.375,196.797 246.053,193.600 246.267 M165.107 247.490 C 165.826 247.579,166.906 247.577,167.507 247.486 C 168.108 247.395,167.520 247.322,166.200 247.324 C 164.880 247.326,164.388 247.401,165.107 247.490 M226.600 247.623 C 227.480 247.805,228.740 247.943,229.400 247.930 L 230.600 247.905 229.400 247.600 C 228.740 247.432,227.480 247.294,226.600 247.293 L 225.000 247.292 226.600 247.623 M232.400 248.442 C 233.390 248.657,234.830 248.909,235.600 249.003 L 237.000 249.174 235.600 248.748 C 234.830 248.514,233.390 248.262,232.400 248.187 L 230.600 248.052 232.400 248.442 M237.338 249.472 C 237.488 249.621,238.856 250.150,240.379 250.646 C 242.735 251.414,244.892 252.441,249.414 254.948 C 255.097 258.099,261.771 266.518,263.984 273.327 C 264.256 274.167,264.576 274.757,264.694 274.640 C 264.929 274.405,264.398 272.888,262.988 269.761 C 259.053 261.038,250.066 253.316,240.034 250.038 C 237.246 249.128,236.927 249.061,237.338 249.472 M134.014 253.055 C 133.967 255.876,138.371 261.811,142.063 263.901 C 143.727 264.843,149.359 266.806,150.346 266.788 C 151.413 266.768,150.075 266.152,148.251 265.824 C 147.399 265.671,146.409 265.407,146.051 265.237 C 138.709 261.765,136.807 259.921,134.797 254.335 C 134.375 253.161,134.022 252.585,134.014 253.055 M191.900 265.899 C 195.255 265.966,200.745 265.966,204.100 265.899 C 207.455 265.832,204.710 265.778,198.000 265.778 C 191.290 265.778,188.545 265.832,191.900 265.899 M176.800 266.400 C 174.845 266.811,178.777 266.821,182.400 266.414 L 185.000 266.122 181.600 266.114 C 179.730 266.109,177.570 266.238,176.800 266.400 M212.200 266.418 C 213.300 266.590,214.830 266.724,215.600 266.718 L 217.000 266.705 215.800 266.400 C 215.140 266.232,213.610 266.097,212.400 266.101 L 210.200 266.107 212.200 266.418 M154.498 267.347 C 156.294 267.549,160.999 267.538,165.698 267.321 L 173.800 266.947 162.600 266.974 C 154.037 266.994,152.130 267.082,154.498 267.347 M219.000 267.204 C 220.100 267.364,221.900 267.612,223.000 267.755 L 225.000 268.015 223.000 267.425 C 221.900 267.101,220.100 266.853,219.000 266.874 L 217.000 266.913 219.000 267.204 M225.600 268.400 C 225.930 268.613,226.470 268.788,226.800 268.788 C 227.333 268.788,227.333 268.745,226.800 268.400 C 226.470 268.187,225.930 268.012,225.600 268.012 C 225.067 268.012,225.067 268.055,225.600 268.400 M228.746 269.416 C 229.486 269.737,230.206 269.994,230.346 269.986 C 230.866 269.957,228.576 268.828,228.000 268.830 C 227.670 268.831,228.006 269.094,228.746 269.416 M231.600 270.721 C 242.145 277.881,239.905 291.159,227.473 295.185 C 226.633 295.457,226.043 295.776,226.160 295.894 C 226.592 296.325,230.955 294.380,233.549 292.600 C 239.461 288.545,240.367 278.747,235.328 273.369 C 233.740 271.675,231.524 269.985,230.938 270.021 C 230.752 270.033,231.050 270.348,231.600 270.721 M265.122 278.200 C 265.442 281.526,265.434 283.192,265.083 287.200 L 264.819 290.200 265.379 287.200 C 266.093 283.375,266.100 281.242,265.408 278.000 L 264.853 275.400 265.122 278.200 M263.579 293.288 C 262.621 296.290,260.418 300.875,259.386 302.016 C 259.064 302.372,258.800 302.782,258.800 302.928 C 258.800 303.219,257.478 304.838,256.162 306.159 C 252.340 309.993,247.564 312.966,242.200 314.849 C 240.440 315.467,239.270 315.974,239.600 315.976 C 248.155 316.032,260.916 303.984,264.272 292.682 C 265.201 289.554,264.604 290.075,263.579 293.288 M141.968 294.916 C 139.289 296.043,137.075 297.671,135.925 299.358 C 135.113 300.551,135.142 300.541,136.640 299.117 C 139.359 296.533,140.048 296.099,143.502 294.793 C 144.721 294.332,149.950 294.394,159.000 294.976 L 161.400 295.130 159.200 294.751 C 153.778 293.817,144.367 293.907,141.968 294.916 M163.000 295.623 C 163.880 295.805,165.590 295.939,166.800 295.921 L 169.000 295.887 166.800 295.583 C 165.590 295.416,163.880 295.282,163.000 295.286 L 161.400 295.292 163.000 295.623 M173.800 296.445 C 175.780 296.638,182.440 296.861,188.600 296.939 L 199.800 297.082 189.800 296.789 C 184.300 296.627,177.640 296.405,175.000 296.294 C 170.393 296.102,170.345 296.108,173.800 296.445 M223.104 296.229 C 222.978 296.356,221.643 296.602,220.137 296.777 C 217.573 297.075,217.527 297.097,219.400 297.130 C 220.500 297.150,222.390 296.919,223.600 296.617 C 225.324 296.187,225.533 296.061,224.567 296.034 C 223.888 296.015,223.230 296.103,223.104 296.229 M210.100 297.491 C 210.925 297.578,212.275 297.578,213.100 297.491 C 213.925 297.405,213.250 297.334,211.600 297.334 C 209.950 297.334,209.275 297.405,210.100 297.491 M134.437 301.911 C 134.153 302.598,134.014 303.393,134.128 303.680 C 134.246 303.974,134.351 303.844,134.368 303.380 C 134.386 302.929,134.600 302.360,134.845 302.115 C 135.090 301.870,135.214 301.443,135.122 301.166 C 135.030 300.889,134.721 301.224,134.437 301.911 M133.793 307.067 C 133.956 310.082,134.828 312.020,136.852 313.863 C 138.397 315.269,143.265 317.476,142.658 316.495 C 142.525 316.279,141.864 315.993,141.189 315.858 C 137.578 315.136,134.563 311.391,133.987 306.910 L 133.639 304.200 133.793 307.067 M236.800 316.400 C 236.005 316.914,237.004 316.914,238.200 316.400 L 239.000 316.056 238.200 316.034 C 237.760 316.022,237.130 316.187,236.800 316.400 M145.400 317.407 C 147.490 317.922,150.489 317.937,168.631 317.524 C 184.827 317.155,193.816 317.158,209.031 317.535 C 226.018 317.956,229.075 317.942,232.200 317.428 L 235.800 316.835 232.400 317.118 C 230.530 317.273,223.510 317.310,216.800 317.200 C 210.090 317.090,197.310 317.000,188.400 317.000 C 179.490 317.000,166.710 317.090,160.000 317.200 C 153.290 317.310,146.720 317.268,145.400 317.107 L 143.000 316.815 145.400 317.407 " stroke="none" fill="#847c74" fill-rule="evenodd"></path><path id="path3" d="M208.105 109.887 C 208.714 109.979,209.614 109.977,210.105 109.882 C 210.597 109.787,210.100 109.711,209.000 109.714 C 207.900 109.717,207.497 109.795,208.105 109.887 M243.340 146.400 C 243.340 148.270,243.409 149.035,243.493 148.100 C 243.577 147.165,243.577 145.635,243.493 144.700 C 243.409 143.765,243.340 144.530,243.340 146.400 M269.293 157.600 C 269.293 158.370,269.375 158.685,269.476 158.300 C 269.576 157.915,269.576 157.285,269.476 156.900 C 269.375 156.515,269.293 156.830,269.293 157.600 M269.293 162.400 C 269.293 163.170,269.375 163.485,269.476 163.100 C 269.576 162.715,269.576 162.085,269.476 161.700 C 269.375 161.315,269.293 161.630,269.293 162.400 M158.937 170.600 C 158.939 172.360,159.009 173.030,159.093 172.089 C 159.178 171.149,159.177 169.709,159.091 168.889 C 159.005 168.070,158.936 168.840,158.937 170.600 M202.100 223.876 C 202.485 223.976,203.115 223.976,203.500 223.876 C 203.885 223.775,203.570 223.693,202.800 223.693 C 202.030 223.693,201.715 223.775,202.100 223.876 M207.500 223.882 C 207.995 223.978,208.805 223.978,209.300 223.882 C 209.795 223.787,209.390 223.709,208.400 223.709 C 207.410 223.709,207.005 223.787,207.500 223.882 M191.511 246.293 C 192.451 246.378,193.891 246.377,194.711 246.291 C 195.530 246.205,194.760 246.136,193.000 246.137 C 191.240 246.139,190.570 246.209,191.511 246.293 M208.900 246.287 C 209.505 246.378,210.495 246.378,211.100 246.287 C 211.705 246.195,211.210 246.120,210.000 246.120 C 208.790 246.120,208.295 246.195,208.900 246.287 M182.905 246.687 C 183.514 246.779,184.414 246.777,184.905 246.682 C 185.397 246.587,184.900 246.511,183.800 246.514 C 182.700 246.517,182.297 246.595,182.905 246.687 M168.905 247.087 C 169.514 247.179,170.414 247.177,170.905 247.082 C 171.397 246.987,170.900 246.911,169.800 246.914 C 168.700 246.917,168.297 246.995,168.905 247.087 M174.100 267.076 C 174.485 267.176,175.115 267.176,175.500 267.076 C 175.885 266.975,175.570 266.893,174.800 266.893 C 174.030 266.893,173.715 266.975,174.100 267.076 M158.707 267.890 C 159.426 267.979,160.506 267.977,161.107 267.886 C 161.708 267.795,161.120 267.722,159.800 267.724 C 158.480 267.726,157.988 267.801,158.707 267.890 M201.900 297.096 C 203.275 297.174,205.525 297.174,206.900 297.096 C 208.275 297.018,207.150 296.954,204.400 296.954 C 201.650 296.954,200.525 297.018,201.900 297.096 M214.905 297.087 C 215.514 297.179,216.414 297.177,216.905 297.082 C 217.397 296.987,216.900 296.911,215.800 296.914 C 214.700 296.917,214.297 296.995,214.905 297.087 M181.300 317.499 C 185.425 317.564,192.175 317.564,196.300 317.499 C 200.425 317.434,197.050 317.381,188.800 317.381 C 180.550 317.381,177.175 317.434,181.300 317.499 M160.311 317.893 C 161.251 317.978,162.691 317.977,163.511 317.891 C 164.330 317.805,163.560 317.736,161.800 317.737 C 160.040 317.739,159.370 317.809,160.311 317.893 M212.900 317.891 C 213.725 317.978,215.075 317.978,215.900 317.891 C 216.725 317.805,216.050 317.734,214.400 317.734 C 212.750 317.734,212.075 317.805,212.900 317.891 " stroke="none" fill="#948c84" fill-rule="evenodd"></path><path id="path4" d="M268.705 62.683 C 269.202 62.779,269.922 62.775,270.305 62.675 C 270.687 62.575,270.280 62.496,269.400 62.501 C 268.520 62.505,268.207 62.587,268.705 62.683 M273.976 63.460 C 276.405 64.310,277.411 64.976,280.186 67.570 C 281.499 68.796,282.219 69.356,281.786 68.814 C 279.411 65.836,274.875 62.768,272.925 62.819 C 272.526 62.830,272.999 63.118,273.976 63.460 M259.643 65.623 C 259.117 66.061,258.757 66.490,258.843 66.576 C 258.930 66.662,259.505 66.297,260.122 65.766 C 260.740 65.235,261.100 64.806,260.922 64.813 C 260.745 64.821,260.170 65.185,259.643 65.623 M256.785 68.418 C 256.080 69.309,255.570 70.099,255.652 70.174 C 255.733 70.250,256.391 69.522,257.113 68.556 C 258.762 66.350,258.508 66.243,256.785 68.418 M283.213 71.254 C 283.206 71.394,283.469 72.024,283.798 72.654 C 284.126 73.284,284.396 73.519,284.398 73.176 C 284.400 72.590,283.240 70.708,283.213 71.254 M254.126 72.900 C 253.355 74.099,252.862 75.209,253.192 75.005 C 253.388 74.884,253.817 74.248,254.144 73.592 C 254.740 72.397,254.729 71.962,254.126 72.900 M251.257 78.057 C 250.975 78.509,250.832 78.966,250.940 79.073 C 251.047 79.181,251.344 78.878,251.600 78.400 C 252.205 77.270,251.924 76.990,251.257 78.057 M284.854 81.067 C 284.825 81.544,284.696 82.264,284.570 82.667 C 284.352 83.361,284.364 83.362,284.796 82.688 C 285.047 82.297,285.175 81.577,285.081 81.088 C 284.909 80.201,284.909 80.201,284.854 81.067 M247.623 85.050 C 247.153 85.848,246.833 86.566,246.913 86.646 C 246.992 86.726,247.461 86.073,247.954 85.196 C 249.075 83.202,248.788 83.077,247.623 85.050 M282.253 87.300 L 281.533 88.600 282.358 87.600 C 283.089 86.713,283.414 86.000,283.086 86.000 C 283.024 86.000,282.649 86.585,282.253 87.300 M245.662 88.862 C 245.177 89.770,244.842 90.576,244.918 90.652 C 244.995 90.728,245.454 90.047,245.938 89.138 C 246.423 88.230,246.758 87.424,246.682 87.348 C 246.605 87.272,246.146 87.953,245.662 88.862 M279.775 90.100 L 278.600 91.400 279.900 90.225 C 280.615 89.579,281.200 88.994,281.200 88.925 C 281.200 88.616,280.870 88.888,279.775 90.100 M243.633 92.633 C 243.157 93.440,242.842 94.176,242.934 94.267 C 243.026 94.359,243.490 93.774,243.967 92.967 C 244.443 92.160,244.758 91.424,244.666 91.333 C 244.574 91.241,244.110 91.826,243.633 92.633 M277.200 92.270 L 276.200 93.292 277.300 92.600 C 277.905 92.219,278.400 91.749,278.400 91.554 C 278.400 91.070,278.340 91.105,277.200 92.270 M193.600 92.353 C 192.830 92.489,195.340 92.600,199.177 92.600 C 203.015 92.600,205.625 92.486,204.977 92.347 C 203.472 92.024,195.437 92.028,193.600 92.353 M187.200 93.200 C 186.870 93.413,186.060 93.599,185.400 93.612 C 184.740 93.625,183.660 93.901,183.000 94.224 C 182.340 94.547,182.160 94.705,182.600 94.574 C 183.040 94.443,184.300 94.172,185.400 93.972 C 186.500 93.772,188.030 93.444,188.800 93.245 L 190.200 92.882 189.000 92.847 C 188.340 92.828,187.530 92.987,187.200 93.200 M208.433 92.944 C 208.525 93.024,209.410 93.206,210.400 93.350 C 211.658 93.533,212.019 93.491,211.600 93.212 C 211.060 92.853,208.032 92.597,208.433 92.944 M272.576 95.845 C 270.829 97.290,269.220 98.671,269.000 98.914 C 268.558 99.403,271.335 97.410,272.600 96.331 C 273.040 95.956,273.822 95.287,274.337 94.845 C 274.852 94.403,275.482 93.967,275.737 93.876 C 275.992 93.784,276.099 93.599,275.976 93.464 C 275.852 93.329,274.322 94.400,272.576 95.845 M213.600 94.011 C 214.370 94.187,215.450 94.438,216.000 94.569 C 216.846 94.772,216.815 94.718,215.800 94.222 C 215.140 93.900,214.060 93.649,213.400 93.664 C 212.215 93.692,212.217 93.696,213.600 94.011 M178.800 95.271 C 178.250 95.500,177.372 95.855,176.848 96.059 C 176.325 96.263,175.998 96.531,176.122 96.655 C 176.245 96.779,176.584 96.727,176.873 96.540 C 177.163 96.353,178.300 95.904,179.400 95.541 C 180.500 95.179,181.040 94.876,180.600 94.868 C 180.160 94.860,179.350 95.042,178.800 95.271 M218.200 95.200 C 219.301 95.673,219.692 95.673,219.400 95.200 C 219.264 94.980,218.758 94.813,218.276 94.828 C 217.431 94.855,217.429 94.869,218.200 95.200 M242.032 95.539 C 241.379 96.760,241.514 97.100,242.241 96.063 C 242.593 95.560,242.788 95.054,242.673 94.940 C 242.559 94.825,242.270 95.095,242.032 95.539 M225.824 98.187 C 226.251 98.510,226.780 98.775,227.000 98.775 C 227.220 98.775,227.051 98.510,226.624 98.187 C 226.196 97.864,225.667 97.600,225.447 97.600 C 225.227 97.600,225.396 97.864,225.824 98.187 M170.085 98.871 C 169.142 99.329,168.449 99.782,168.546 99.879 C 168.745 100.079,172.000 98.489,172.000 98.192 C 172.000 97.937,172.047 97.920,170.085 98.871 M264.120 102.538 C 259.912 105.930,258.958 106.776,260.000 106.192 C 260.826 105.730,265.091 102.327,267.369 100.312 C 269.795 98.167,268.126 99.310,264.120 102.538 M229.824 100.187 C 230.251 100.510,230.780 100.775,231.000 100.775 C 231.220 100.775,231.051 100.510,230.624 100.187 C 230.196 99.864,229.667 99.600,229.447 99.600 C 229.227 99.600,229.396 99.864,229.824 100.187 M163.500 102.611 C 162.015 103.588,160.800 104.479,160.800 104.591 C 160.800 104.757,166.195 101.465,166.767 100.950 C 167.592 100.206,165.668 101.185,163.500 102.611 M157.533 106.900 C 156.071 108.055,154.934 109.061,155.007 109.136 C 155.140 109.273,160.400 105.169,160.400 104.928 C 160.400 104.663,160.126 104.852,157.533 106.900 M257.369 107.913 C 256.912 108.291,256.051 108.960,255.454 109.400 C 254.858 109.840,254.078 110.650,253.722 111.200 C 253.170 112.054,253.274 112.016,254.438 110.936 C 255.187 110.242,256.430 109.122,257.200 108.448 C 258.667 107.165,258.806 106.726,257.369 107.913 M201.800 110.646 C 200.246 111.192,200.240 111.201,201.600 110.947 C 202.370 110.803,203.990 110.557,205.200 110.401 L 207.400 110.118 205.400 110.101 C 204.300 110.091,202.680 110.337,201.800 110.646 M211.700 110.287 C 212.305 110.378,213.295 110.378,213.900 110.287 C 214.505 110.195,214.010 110.120,212.800 110.120 C 211.590 110.120,211.095 110.195,211.700 110.287 M215.600 110.800 C 215.930 111.013,216.560 111.178,217.000 111.166 L 217.800 111.144 217.000 110.800 C 215.804 110.286,214.805 110.286,215.600 110.800 M197.600 111.825 C 196.634 112.191,196.455 112.362,197.024 112.377 C 197.476 112.390,198.196 112.136,198.624 111.813 C 199.535 111.123,199.453 111.124,197.600 111.825 M219.020 111.572 C 219.229 111.776,219.940 112.055,220.600 112.191 C 221.796 112.439,221.795 112.437,220.454 111.820 C 218.919 111.113,218.472 111.035,219.020 111.572 M252.615 113.911 C 252.475 114.742,252.520 115.853,252.715 116.381 C 252.989 117.123,253.075 116.780,253.093 114.870 C 253.120 112.036,252.979 111.755,252.615 113.911 M147.974 116.162 C 146.362 118.105,144.688 120.400,144.881 120.400 C 145.140 120.400,149.296 115.158,149.136 115.032 C 149.061 114.973,148.538 115.481,147.974 116.162 M188.056 116.796 C 184.910 119.043,184.576 119.600,187.600 117.557 C 189.030 116.591,190.275 115.756,190.367 115.700 C 190.458 115.645,190.458 115.525,190.366 115.433 C 190.274 115.341,189.235 115.954,188.056 116.796 M228.488 116.219 C 229.086 116.845,229.682 117.252,229.811 117.122 C 229.940 116.993,229.451 116.481,228.723 115.984 L 227.400 115.080 228.488 116.219 M233.009 120.035 C 234.544 121.704,236.250 123.712,236.800 124.498 C 237.350 125.284,237.861 125.867,237.936 125.794 C 238.220 125.517,234.780 121.304,232.550 119.200 C 230.301 117.078,230.317 117.108,233.009 120.035 M253.564 118.333 C 253.780 118.736,254.271 119.321,254.655 119.633 C 255.087 119.984,254.990 119.704,254.401 118.900 C 253.351 117.465,252.957 117.198,253.564 118.333 M179.633 123.828 C 178.228 125.243,177.179 126.400,177.304 126.400 C 177.635 126.400,182.495 121.562,182.330 121.396 C 182.253 121.319,181.039 122.414,179.633 123.828 M259.731 126.761 C 261.089 128.944,262.257 130.674,262.327 130.605 C 262.498 130.436,258.063 123.286,257.616 123.010 C 257.422 122.890,258.374 124.578,259.731 126.761 M141.584 125.223 C 141.105 125.896,140.779 126.513,140.861 126.594 C 140.943 126.676,141.414 126.126,141.908 125.371 C 143.023 123.671,142.771 123.556,141.584 125.223 M139.662 128.862 C 139.177 129.770,138.842 130.576,138.918 130.652 C 138.995 130.728,139.454 130.047,139.938 129.138 C 140.423 128.230,140.758 127.424,140.682 127.348 C 140.605 127.272,140.146 127.953,139.662 128.862 M174.034 130.153 L 173.069 131.400 174.213 130.312 C 174.843 129.714,175.277 129.153,175.179 129.065 C 175.080 128.977,174.565 129.467,174.034 130.153 M172.000 132.800 C 171.530 133.460,171.236 134.000,171.346 134.000 C 171.456 134.000,171.930 133.460,172.400 132.800 C 172.870 132.140,173.164 131.600,173.054 131.600 C 172.944 131.600,172.470 132.140,172.000 132.800 M137.244 134.044 C 136.952 134.705,136.798 135.331,136.902 135.436 C 137.007 135.540,137.321 135.074,137.600 134.400 C 138.262 132.801,137.938 132.477,137.244 134.044 M263.200 132.925 C 263.200 133.311,265.161 136.928,265.179 136.575 C 265.204 136.061,263.660 132.800,263.391 132.800 C 263.286 132.800,263.200 132.856,263.200 132.925 M169.984 135.623 C 169.505 136.296,169.200 136.933,169.307 137.040 C 169.414 137.147,169.877 136.596,170.337 135.817 C 171.364 134.077,171.163 133.967,169.984 135.623 M242.034 137.000 C 242.022 137.440,242.187 138.070,242.400 138.400 C 242.914 139.195,242.914 138.196,242.400 137.000 L 242.056 136.200 242.034 137.000 M168.526 138.100 C 167.819 139.199,167.193 140.527,167.321 140.655 C 167.396 140.729,167.840 140.072,168.308 139.195 C 169.103 137.707,169.247 136.978,168.526 138.100 M265.524 138.200 C 265.726 138.640,265.992 139.270,266.114 139.600 C 266.307 140.118,266.341 140.115,266.368 139.576 C 266.386 139.234,266.120 138.604,265.778 138.176 C 265.166 137.412,265.162 137.413,265.524 138.200 M135.067 140.667 C 134.920 140.813,134.815 141.398,134.834 141.967 C 134.868 142.981,134.875 142.979,135.221 141.820 C 135.585 140.603,135.531 140.202,135.067 140.667 M266.428 140.676 C 266.518 141.715,267.144 142.596,267.172 141.724 C 267.187 141.242,267.020 140.736,266.800 140.600 C 266.580 140.464,266.413 140.498,266.428 140.676 M242.961 146.800 C 242.961 150.210,243.022 151.605,243.097 149.900 C 243.172 148.195,243.172 145.405,243.097 143.700 C 243.022 141.995,242.961 143.390,242.961 146.800 M166.062 142.862 C 165.577 143.770,165.242 144.576,165.318 144.652 C 165.395 144.728,165.854 144.047,166.338 143.138 C 166.823 142.230,167.158 141.424,167.082 141.348 C 167.005 141.272,166.546 141.953,166.062 142.862 M267.473 144.000 C 267.619 144.550,267.867 145.630,268.023 146.400 C 268.301 147.764,268.309 147.769,268.336 146.600 C 268.351 145.940,268.104 144.860,267.786 144.200 C 267.320 143.232,267.259 143.193,267.473 144.000 M134.273 144.553 C 134.123 144.945,134.011 145.566,134.025 145.933 C 134.042 146.375,134.181 146.274,134.437 145.634 C 134.649 145.103,134.761 144.482,134.685 144.254 C 134.609 144.027,134.424 144.161,134.273 144.553 M164.053 147.253 C 163.580 148.393,163.258 149.392,163.339 149.472 C 163.420 149.553,163.873 148.686,164.347 147.547 C 164.820 146.407,165.142 145.408,165.061 145.328 C 164.980 145.247,164.527 146.114,164.053 147.253 M133.724 149.000 C 133.726 150.320,133.801 150.812,133.890 150.093 C 133.979 149.374,133.977 148.294,133.886 147.693 C 133.795 147.092,133.722 147.680,133.724 149.000 M268.668 149.400 C 268.971 151.377,269.202 151.714,269.194 150.167 C 269.191 149.525,269.016 148.730,268.805 148.400 C 268.545 147.991,268.501 148.310,268.668 149.400 M162.491 151.300 C 161.810 153.184,161.904 153.694,162.626 152.030 C 162.953 151.277,163.166 150.499,163.101 150.302 C 163.035 150.105,162.760 150.554,162.491 151.300 M133.353 156.600 C 133.353 159.240,133.418 160.268,133.497 158.884 C 133.575 157.501,133.574 155.341,133.495 154.084 C 133.416 152.828,133.352 153.960,133.353 156.600 M269.391 159.521 C 269.396 163.107,269.517 165.627,269.660 165.121 C 270.015 163.866,270.020 156.573,269.668 154.600 C 269.502 153.667,269.386 155.717,269.391 159.521 M242.200 156.000 C 242.048 156.691,242.014 157.347,242.124 157.457 C 242.234 157.567,242.448 157.091,242.600 156.400 C 242.752 155.709,242.786 155.053,242.676 154.943 C 242.566 154.833,242.352 155.309,242.200 156.000 M160.629 157.429 C 160.481 158.015,160.451 158.584,160.561 158.694 C 160.671 158.804,160.881 158.415,161.029 157.829 C 161.176 157.242,161.206 156.673,161.096 156.563 C 160.986 156.453,160.776 156.842,160.629 157.429 M160.093 160.400 C 160.093 161.170,160.175 161.485,160.276 161.100 C 160.376 160.715,160.376 160.085,160.276 159.700 C 160.175 159.315,160.093 159.630,160.093 160.400 M241.049 161.015 C 240.912 161.373,240.815 161.966,240.834 162.333 C 240.853 162.700,241.027 162.469,241.221 161.820 C 241.598 160.558,241.465 159.933,241.049 161.015 M133.724 164.200 C 133.726 165.520,133.801 166.012,133.890 165.293 C 133.979 164.574,133.977 163.494,133.886 162.893 C 133.795 162.292,133.722 162.880,133.724 164.200 M159.378 163.378 C 159.227 164.181,159.204 164.937,159.326 165.060 C 159.448 165.182,159.672 164.625,159.822 163.822 C 159.973 163.019,159.996 162.263,159.874 162.140 C 159.752 162.018,159.528 162.575,159.378 163.378 M240.054 164.787 C 239.804 165.454,239.396 166.546,239.146 167.213 C 238.897 167.880,238.773 168.506,238.871 168.604 C 238.969 168.703,239.435 167.668,239.906 166.306 C 240.771 163.804,240.894 162.543,240.054 164.787 M134.000 167.710 C 134.000 168.283,134.187 168.868,134.416 169.010 C 134.689 169.179,134.738 168.877,134.560 168.134 C 134.192 166.601,134.000 166.456,134.000 167.710 M268.864 169.050 C 268.829 169.518,268.705 170.508,268.589 171.250 C 268.396 172.486,268.415 172.517,268.808 171.614 C 269.045 171.072,269.168 170.082,269.083 169.414 C 268.991 168.697,268.902 168.548,268.864 169.050 M237.627 171.227 C 237.124 172.338,236.797 173.331,236.900 173.433 C 237.002 173.535,237.473 172.686,237.947 171.547 C 239.065 168.854,238.813 168.602,237.627 171.227 M134.800 171.710 C 134.800 172.283,134.987 172.868,135.216 173.010 C 135.489 173.179,135.538 172.877,135.360 172.134 C 134.992 170.601,134.800 170.456,134.800 171.710 M159.268 175.800 C 159.274 176.240,159.424 177.050,159.600 177.600 L 159.920 178.600 159.932 177.600 C 159.938 177.050,159.789 176.240,159.600 175.800 L 159.256 175.000 159.268 175.800 M136.832 177.867 C 136.787 178.519,138.378 182.155,138.607 181.926 C 138.710 181.823,138.460 181.033,138.051 180.169 C 137.642 179.306,137.207 178.330,137.085 178.000 C 136.963 177.670,136.849 177.610,136.832 177.867 M266.846 177.867 C 266.821 178.124,266.684 178.664,266.541 179.067 C 266.340 179.636,266.394 179.697,266.779 179.342 C 267.052 179.091,267.189 178.551,267.084 178.142 C 266.979 177.734,266.872 177.610,266.846 177.867 M233.584 179.623 C 233.105 180.296,232.800 180.933,232.907 181.040 C 233.014 181.147,233.477 180.596,233.937 179.817 C 234.964 178.077,234.763 177.967,233.584 179.623 M160.059 179.600 C 160.046 180.150,160.300 181.140,160.622 181.800 C 161.245 183.075,161.206 182.704,160.411 179.800 C 160.108 178.696,160.080 178.680,160.059 179.600 M230.668 184.595 C 229.648 186.248,228.901 187.600,229.009 187.600 C 229.311 187.600,232.871 181.938,232.686 181.752 C 232.596 181.663,231.688 182.942,230.668 184.595 M161.221 183.704 C 161.190 184.159,162.879 187.654,163.049 187.485 C 163.129 187.404,162.755 186.452,162.218 185.369 C 161.681 184.286,161.233 183.537,161.221 183.704 M139.600 184.618 C 139.600 184.836,140.050 185.677,140.600 186.486 C 141.150 187.295,141.600 188.125,141.600 188.330 C 141.600 188.535,141.886 188.940,142.236 189.230 C 142.609 189.539,142.418 188.938,141.777 187.779 C 140.373 185.240,139.600 184.118,139.600 184.618 M163.200 188.177 C 163.200 188.571,164.911 191.222,165.066 191.067 C 165.158 190.976,164.847 190.248,164.377 189.450 C 163.600 188.133,163.200 187.701,163.200 188.177 M227.796 188.814 C 227.402 190.054,218.431 198.946,216.500 200.010 C 215.565 200.526,214.800 201.106,214.800 201.299 C 214.800 201.493,215.889 200.887,217.220 199.953 C 220.842 197.413,229.689 188.000,228.454 188.000 C 228.234 188.000,227.938 188.366,227.796 188.814 M262.083 189.622 C 261.610 190.508,261.386 191.132,261.586 191.009 C 262.012 190.745,263.264 188.331,263.073 188.140 C 263.002 188.068,262.556 188.735,262.083 189.622 M142.800 190.330 C 142.800 190.512,143.279 191.097,143.863 191.630 L 144.927 192.600 143.988 191.300 C 143.012 189.948,142.800 189.775,142.800 190.330 M166.871 193.800 C 167.816 195.010,168.734 196.000,168.910 196.000 C 169.087 196.000,168.864 195.606,168.415 195.124 C 167.966 194.642,167.194 193.654,166.700 192.927 C 166.205 192.200,165.654 191.604,165.477 191.603 C 165.299 191.601,165.926 192.590,166.871 193.800 M145.812 194.200 C 146.452 195.080,147.396 196.250,147.912 196.800 C 148.427 197.350,149.681 198.922,150.697 200.294 C 151.714 201.666,152.621 202.712,152.713 202.620 C 152.853 202.481,151.088 199.873,150.400 199.200 C 150.287 199.090,149.218 197.830,148.024 196.400 C 145.240 193.067,144.333 192.165,145.812 194.200 M258.000 196.400 C 257.530 197.060,257.236 197.600,257.346 197.600 C 257.456 197.600,257.930 197.060,258.400 196.400 C 258.870 195.740,259.164 195.200,259.054 195.200 C 258.944 195.200,258.470 195.740,258.000 196.400 M170.502 197.455 C 171.227 198.294,174.800 200.978,174.800 200.684 C 174.800 200.593,173.675 199.646,172.300 198.580 C 170.925 197.515,170.116 197.008,170.502 197.455 M255.856 199.362 C 254.404 201.265,254.527 201.538,256.053 199.800 C 256.743 199.015,257.218 198.284,257.109 198.176 C 257.000 198.067,256.436 198.601,255.856 199.362 M175.200 200.960 C 175.200 201.049,175.875 201.502,176.700 201.968 L 178.200 202.816 177.000 201.810 C 175.899 200.887,175.200 200.557,175.200 200.960 M178.800 203.014 C 178.800 203.246,182.294 204.814,182.733 204.779 C 182.979 204.760,179.208 202.800,178.925 202.800 C 178.856 202.800,178.800 202.896,178.800 203.014 M250.200 205.697 C 248.168 207.783,247.861 208.214,249.081 207.267 C 250.481 206.181,253.580 202.774,253.134 202.811 C 253.060 202.817,251.740 204.116,250.200 205.697 M153.026 203.800 C 153.181 204.240,153.443 205.230,153.608 206.000 C 153.903 207.376,153.909 207.379,153.940 206.200 C 153.957 205.540,153.696 204.550,153.358 204.000 C 152.956 203.345,152.842 203.276,153.026 203.800 M202.800 206.200 C 200.970 206.905,201.678 206.910,204.200 206.209 C 205.358 205.888,205.779 205.655,205.200 205.657 C 204.650 205.659,203.570 205.903,202.800 206.200 M188.000 206.400 C 188.330 206.613,188.960 206.778,189.400 206.766 L 190.200 206.744 189.400 206.400 C 188.204 205.886,187.205 205.886,188.000 206.400 M193.715 207.096 C 194.988 207.176,196.968 207.175,198.115 207.094 C 199.262 207.014,198.220 206.949,195.800 206.950 C 193.380 206.951,192.442 207.016,193.715 207.096 M153.664 208.876 C 153.629 209.688,153.420 210.464,153.200 210.600 C 152.980 210.736,152.807 211.152,152.816 211.524 C 152.827 211.976,153.033 211.829,153.440 211.079 C 153.774 210.462,153.976 209.382,153.888 208.679 C 153.731 207.426,153.727 207.430,153.664 208.876 M243.800 211.232 C 241.427 213.026,241.108 213.532,243.333 211.972 C 245.014 210.794,245.929 209.975,245.524 210.011 C 245.456 210.017,244.680 210.567,243.800 211.232 M151.675 213.584 C 150.694 214.911,150.478 215.850,151.442 214.600 C 152.178 213.645,152.884 212.400,152.689 212.400 C 152.613 212.400,152.157 212.933,151.675 213.584 M236.081 216.081 C 235.356 216.529,234.838 216.971,234.931 217.064 C 235.108 217.242,238.000 215.636,238.000 215.360 C 238.000 215.046,237.381 215.278,236.081 216.081 M149.425 216.713 C 148.999 217.311,148.203 218.430,147.656 219.200 L 146.663 220.600 147.631 219.600 C 149.057 218.128,150.890 215.598,150.520 215.613 C 150.344 215.619,149.851 216.114,149.425 216.713 M177.338 219.506 C 177.084 219.668,178.012 219.800,179.400 219.800 C 180.788 219.800,181.716 219.668,181.462 219.506 C 181.208 219.344,180.280 219.212,179.400 219.212 C 178.520 219.212,177.592 219.344,177.338 219.506 M225.800 220.614 C 224.185 221.354,225.151 221.355,226.854 220.616 C 227.594 220.294,227.930 220.039,227.600 220.048 C 227.270 220.057,226.460 220.312,225.800 220.614 M173.871 221.526 C 172.389 223.073,172.518 223.420,174.018 221.921 C 174.688 221.251,175.170 220.636,175.089 220.555 C 175.008 220.475,174.460 220.911,173.871 221.526 M184.200 220.800 C 184.336 221.020,184.842 221.187,185.324 221.172 C 186.169 221.145,186.171 221.131,185.400 220.800 C 184.299 220.327,183.908 220.327,184.200 220.800 M145.600 222.000 C 145.130 222.660,144.836 223.200,144.946 223.200 C 145.056 223.200,145.530 222.660,146.000 222.000 C 146.470 221.340,146.764 220.800,146.654 220.800 C 146.544 220.800,146.070 221.340,145.600 222.000 M223.122 221.411 C 223.006 221.528,222.121 221.778,221.155 221.968 C 219.759 222.242,219.645 222.318,220.600 222.338 C 221.710 222.362,224.737 221.305,223.767 221.232 C 223.528 221.215,223.238 221.295,223.122 221.411 M190.200 222.416 C 191.080 222.630,192.520 222.888,193.400 222.989 L 195.000 223.174 193.400 222.784 C 192.520 222.570,191.080 222.312,190.200 222.211 L 188.600 222.026 190.200 222.416 M217.400 222.800 L 216.200 223.105 217.476 223.153 C 218.178 223.179,218.864 223.020,219.000 222.800 C 219.274 222.357,219.140 222.357,217.400 222.800 M197.400 223.579 C 198.156 223.924,201.921 224.169,201.567 223.850 C 201.475 223.768,200.320 223.591,199.000 223.457 C 197.416 223.296,196.872 223.338,197.400 223.579 M211.400 223.600 L 209.800 223.886 211.200 223.896 C 211.970 223.901,213.140 223.768,213.800 223.600 C 215.428 223.186,213.713 223.186,211.400 223.600 M142.938 225.348 C 141.130 227.808,138.737 231.600,138.993 231.600 C 139.112 231.600,139.867 230.565,140.671 229.300 C 141.474 228.035,142.238 226.910,142.368 226.800 C 143.000 226.266,144.801 223.602,144.520 223.616 C 144.344 223.624,143.632 224.404,142.938 225.348 M171.715 224.100 C 169.866 226.516,169.102 227.760,170.061 226.793 C 171.144 225.702,172.614 223.600,172.295 223.600 C 172.187 223.600,171.926 223.825,171.715 224.100 M204.300 224.282 C 204.795 224.378,205.605 224.378,206.100 224.282 C 206.595 224.187,206.190 224.109,205.200 224.109 C 204.210 224.109,203.805 224.187,204.300 224.282 M167.984 229.277 L 167.080 230.600 168.219 229.512 C 168.845 228.914,169.252 228.318,169.122 228.189 C 168.993 228.060,168.481 228.549,167.984 229.277 M164.694 233.655 C 163.866 234.725,163.269 235.600,163.367 235.600 C 163.657 235.600,166.528 231.993,166.357 231.844 C 166.270 231.770,165.522 232.585,164.694 233.655 M137.257 234.057 C 136.975 234.509,136.832 234.966,136.940 235.073 C 137.047 235.181,137.344 234.878,137.600 234.400 C 138.205 233.270,137.924 232.990,137.257 234.057 M162.060 237.205 C 161.574 237.862,161.316 238.394,161.488 238.387 C 161.887 238.371,163.334 236.401,163.111 236.178 C 163.019 236.085,162.546 236.548,162.060 237.205 M135.285 238.013 C 135.018 238.440,134.807 239.017,134.816 239.295 C 134.825 239.573,135.109 239.289,135.447 238.665 C 136.150 237.368,136.018 236.838,135.285 238.013 M160.432 239.539 C 160.195 239.984,160.001 240.584,160.002 240.874 C 160.004 241.163,160.277 240.878,160.610 240.240 C 160.942 239.603,161.136 239.002,161.040 238.906 C 160.943 238.810,160.670 239.095,160.432 239.539 M159.375 242.557 C 158.962 244.203,161.660 247.673,162.612 246.721 C 162.730 246.604,162.288 246.285,161.630 246.013 C 160.348 245.482,159.375 243.451,159.832 242.261 C 159.971 241.897,159.980 241.600,159.850 241.600 C 159.721 241.600,159.507 242.031,159.375 242.557 M133.693 243.600 C 133.693 244.370,133.775 244.685,133.876 244.300 C 133.976 243.915,133.976 243.285,133.876 242.900 C 133.775 242.515,133.693 242.830,133.693 243.600 M132.989 246.937 C 132.845 247.892,132.896 249.467,133.101 250.437 C 133.435 252.017,133.472 251.837,133.458 248.700 C 133.441 244.751,133.361 244.451,132.989 246.937 M198.900 245.897 C 200.605 245.972,203.395 245.972,205.100 245.897 C 206.805 245.822,205.410 245.761,202.000 245.761 C 198.590 245.761,197.195 245.822,198.900 245.897 M178.200 246.414 C 176.660 246.563,178.640 246.599,182.600 246.494 C 186.560 246.390,189.875 246.236,189.967 246.152 C 190.227 245.915,181.322 246.113,178.200 246.414 M212.033 246.153 C 212.125 246.237,214.360 246.402,217.000 246.519 C 220.240 246.664,221.085 246.627,219.600 246.406 C 217.331 246.069,211.738 245.882,212.033 246.153 M164.900 247.087 C 165.505 247.178,166.495 247.178,167.100 247.087 C 167.705 246.995,167.210 246.920,166.000 246.920 C 164.790 246.920,164.295 246.995,164.900 247.087 M225.633 246.944 C 225.725 247.023,226.970 247.192,228.400 247.318 C 230.010 247.460,230.695 247.416,230.200 247.202 C 229.442 246.874,225.280 246.639,225.633 246.944 M232.600 247.977 C 233.480 248.129,234.650 248.375,235.200 248.523 C 236.001 248.739,235.962 248.677,235.000 248.214 C 234.340 247.896,233.170 247.650,232.400 247.668 L 231.000 247.700 232.600 247.977 M240.761 250.222 C 241.509 250.547,242.209 250.725,242.316 250.617 C 242.540 250.394,240.586 249.592,239.874 249.616 C 239.613 249.624,240.012 249.897,240.761 250.222 M243.233 250.957 C 243.683 251.381,246.513 252.820,246.642 252.691 C 246.724 252.610,246.055 252.151,245.157 251.672 C 243.670 250.877,242.810 250.558,243.233 250.957 M133.792 253.765 C 133.891 254.626,134.184 255.526,134.444 255.765 C 134.802 256.094,134.842 256.004,134.609 255.400 C 134.440 254.960,134.146 254.060,133.957 253.400 C 133.650 252.325,133.632 252.363,133.792 253.765 M247.233 252.930 C 247.325 253.001,248.030 253.466,248.800 253.963 L 250.200 254.866 249.000 253.835 C 248.340 253.268,247.635 252.803,247.433 252.802 C 247.232 252.801,247.142 252.858,247.233 252.930 M251.400 255.722 C 252.060 256.205,254.127 258.040,255.994 259.800 C 257.862 261.560,259.032 262.557,258.595 262.015 C 257.166 260.245,252.616 256.002,251.900 255.771 C 251.515 255.647,251.200 255.378,251.200 255.173 C 251.200 254.968,250.975 254.810,250.700 254.822 C 250.425 254.834,250.740 255.239,251.400 255.722 M134.800 256.462 C 134.800 256.580,135.065 257.200,135.389 257.839 C 136.093 259.229,138.000 261.488,138.000 260.932 C 138.000 260.716,137.550 260.117,137.000 259.600 C 136.450 259.083,135.994 258.467,135.987 258.230 C 135.975 257.802,134.800 256.053,134.800 256.462 M138.620 261.709 C 138.728 261.988,139.217 262.462,139.708 262.761 C 140.559 263.280,140.555 263.256,139.630 262.253 C 138.548 261.077,138.334 260.962,138.620 261.709 M140.991 263.586 C 141.255 264.012,143.669 265.264,143.860 265.073 C 143.932 265.002,143.265 264.556,142.378 264.083 C 141.492 263.610,140.868 263.386,140.991 263.586 M261.092 266.203 C 262.101 267.855,263.006 269.128,263.102 269.032 C 263.288 268.846,259.740 263.200,259.437 263.200 C 259.338 263.200,260.083 264.551,261.092 266.203 M147.800 266.612 C 148.680 266.929,149.760 267.179,150.200 267.167 C 150.640 267.156,150.190 266.891,149.200 266.579 C 146.851 265.839,145.728 265.865,147.800 266.612 M191.925 266.299 C 195.293 266.366,200.693 266.366,203.925 266.299 C 207.156 266.232,204.400 266.177,197.800 266.177 C 191.200 266.177,188.556 266.232,191.925 266.299 M178.600 266.800 L 175.800 267.059 178.600 267.094 C 180.140 267.114,182.300 266.990,183.400 266.818 L 185.400 266.507 183.400 266.524 C 182.300 266.534,180.140 266.658,178.600 266.800 M211.800 266.823 C 212.680 267.005,214.120 267.140,215.000 267.124 C 216.567 267.094,216.559 267.087,214.600 266.782 C 211.756 266.339,209.612 266.370,211.800 266.823 M153.000 267.584 C 153.753 267.923,157.925 268.169,157.567 267.853 C 157.475 267.772,156.230 267.598,154.800 267.465 C 153.124 267.309,152.484 267.352,153.000 267.584 M164.600 267.600 L 161.800 267.859 164.600 267.900 C 166.140 267.922,168.210 267.797,169.200 267.620 L 171.000 267.300 169.200 267.321 C 168.210 267.332,166.140 267.458,164.600 267.600 M219.400 267.600 C 219.840 267.789,220.650 267.944,221.200 267.944 C 222.112 267.944,222.129 267.913,221.400 267.600 C 220.960 267.411,220.150 267.256,219.600 267.256 C 218.688 267.256,218.671 267.287,219.400 267.600 M223.600 268.424 C 226.889 269.205,227.535 269.261,226.000 268.633 C 225.230 268.319,224.060 268.068,223.400 268.076 C 222.217 268.092,222.220 268.097,223.600 268.424 M263.213 270.105 C 263.206 270.273,263.367 270.723,263.570 271.105 C 263.774 271.487,264.215 272.520,264.550 273.400 C 264.974 274.515,265.165 274.734,265.179 274.124 C 265.191 273.642,265.020 273.136,264.800 273.000 C 264.580 272.864,264.400 272.438,264.400 272.053 C 264.400 271.382,263.239 269.477,263.213 270.105 M233.800 273.023 C 234.900 274.110,236.014 275.360,236.276 275.800 C 236.539 276.240,236.764 276.416,236.776 276.191 C 236.812 275.571,234.533 272.947,233.084 271.938 C 232.191 271.317,232.410 271.648,233.800 273.023 M265.246 276.400 C 265.265 276.730,265.424 277.450,265.600 278.000 L 265.920 279.000 265.954 278.000 C 265.973 277.450,265.813 276.730,265.600 276.400 C 265.255 275.867,265.216 275.867,265.246 276.400 M237.037 277.400 C 237.197 277.840,237.454 279.100,237.608 280.200 L 237.887 282.200 237.930 280.400 C 237.953 279.410,237.696 278.150,237.358 277.600 C 236.969 276.966,236.852 276.893,237.037 277.400 M266.128 282.400 C 266.128 283.830,266.201 284.415,266.289 283.700 C 266.378 282.985,266.378 281.815,266.289 281.100 C 266.201 280.385,266.128 280.970,266.128 282.400 M237.540 284.400 C 237.407 285.390,237.175 286.650,237.027 287.200 C 236.873 287.766,237.034 287.597,237.397 286.809 C 237.749 286.045,237.980 284.785,237.910 284.009 C 237.786 282.631,237.778 282.639,237.540 284.400 M265.447 286.937 C 265.278 288.002,265.232 288.965,265.344 289.078 C 265.636 289.369,266.105 286.624,265.914 285.740 C 265.827 285.333,265.616 285.871,265.447 286.937 M234.411 290.730 C 232.940 292.256,232.668 292.663,233.582 291.971 C 234.740 291.095,237.205 288.340,236.751 288.430 C 236.668 288.446,235.615 289.481,234.411 290.730 M264.499 291.990 C 263.796 294.242,263.913 294.958,264.643 292.873 C 264.976 291.923,265.192 290.976,265.123 290.769 C 265.054 290.561,264.773 291.111,264.499 291.990 M230.624 293.413 C 230.196 293.736,230.027 294.000,230.247 294.000 C 230.467 294.000,230.996 293.736,231.424 293.413 C 231.851 293.090,232.020 292.825,231.800 292.825 C 231.580 292.825,231.051 293.090,230.624 293.413 M146.918 293.898 C 148.633 293.973,151.333 293.972,152.918 293.897 C 154.503 293.821,153.100 293.759,149.800 293.760 C 146.500 293.761,145.203 293.822,146.918 293.898 M157.200 294.400 C 157.750 294.576,158.650 294.720,159.200 294.720 L 160.200 294.720 159.200 294.400 C 158.650 294.224,157.750 294.080,157.200 294.080 L 156.200 294.080 157.200 294.400 M139.400 295.810 L 138.200 296.816 139.700 295.968 C 140.525 295.502,141.200 295.049,141.200 294.960 C 141.200 294.557,140.501 294.887,139.400 295.810 M162.033 294.952 C 162.125 295.035,163.820 295.203,165.800 295.324 C 168.393 295.482,168.897 295.448,167.600 295.202 C 165.776 294.855,161.727 294.673,162.033 294.952 M226.000 295.200 C 225.670 295.413,224.860 295.617,224.200 295.654 C 223.115 295.714,223.097 295.735,224.011 295.878 C 224.567 295.965,225.647 295.765,226.411 295.434 C 227.175 295.102,227.530 294.827,227.200 294.822 C 226.870 294.817,226.330 294.987,226.000 295.200 M171.700 295.894 C 172.745 295.976,174.455 295.976,175.500 295.894 C 176.545 295.812,175.690 295.744,173.600 295.744 C 171.510 295.744,170.655 295.812,171.700 295.894 M180.400 296.398 C 182.631 296.725,189.873 296.925,189.567 296.651 C 189.475 296.568,186.880 296.405,183.800 296.288 C 180.247 296.153,179.004 296.193,180.400 296.398 M220.000 296.400 L 219.000 296.720 220.000 296.720 C 220.550 296.720,221.450 296.576,222.000 296.400 L 223.000 296.080 222.000 296.080 C 221.450 296.080,220.550 296.224,220.000 296.400 M136.755 297.900 C 135.481 299.308,134.656 300.400,134.866 300.400 C 134.957 300.400,135.708 299.590,136.535 298.600 C 138.187 296.624,138.335 296.153,136.755 297.900 M210.300 297.089 C 211.015 297.178,212.185 297.178,212.900 297.089 C 213.615 297.001,213.030 296.928,211.600 296.928 C 210.170 296.928,209.585 297.001,210.300 297.089 M261.657 299.257 C 261.375 299.709,261.232 300.166,261.340 300.273 C 261.447 300.381,261.744 300.078,262.000 299.600 C 262.605 298.470,262.324 298.190,261.657 299.257 M260.060 302.005 C 259.574 302.662,259.316 303.194,259.488 303.187 C 259.887 303.171,261.334 301.201,261.111 300.978 C 261.019 300.885,260.546 301.348,260.060 302.005 M256.426 306.516 C 254.383 308.804,254.245 309.028,255.758 307.600 C 257.413 306.038,259.502 303.568,259.127 303.616 C 259.057 303.625,257.842 304.930,256.426 306.516 M133.320 306.400 C 133.320 307.610,133.395 308.105,133.487 307.500 C 133.578 306.895,133.578 305.905,133.487 305.300 C 133.395 304.695,133.320 305.190,133.320 306.400 M133.634 309.424 C 133.615 309.876,133.883 310.596,134.230 311.024 C 134.576 311.451,134.737 311.561,134.587 311.269 C 134.437 310.976,134.169 310.256,133.991 309.669 C 133.733 308.811,133.662 308.763,133.634 309.424 M249.211 312.220 C 248.447 312.759,247.997 313.199,248.211 313.198 C 248.425 313.197,249.140 312.753,249.800 312.212 C 251.341 310.949,251.005 310.953,249.211 312.220 M134.800 312.159 C 134.800 312.601,137.584 315.350,137.806 315.127 C 137.905 315.029,137.269 314.248,136.393 313.393 C 135.517 312.537,134.800 311.982,134.800 312.159 M246.633 313.500 C 246.469 313.665,245.584 314.105,244.667 314.478 C 243.750 314.850,243.255 315.165,243.566 315.178 C 244.357 315.209,247.200 313.915,247.200 313.523 C 247.200 313.120,247.021 313.113,246.633 313.500 M138.400 315.451 C 138.400 315.729,142.086 317.238,142.459 317.113 C 142.642 317.051,141.804 316.612,140.596 316.137 C 139.388 315.662,138.400 315.353,138.400 315.451 M237.800 316.611 C 236.917 316.902,236.558 317.150,237.000 317.163 C 237.440 317.177,238.520 316.929,239.400 316.612 C 241.397 315.892,239.982 315.892,237.800 316.611 M144.400 317.594 C 144.730 317.811,145.435 317.991,145.967 317.994 C 147.251 318.002,146.925 317.775,145.200 317.458 C 144.215 317.277,143.978 317.318,144.400 317.594 M232.000 317.600 L 230.600 317.895 232.000 317.919 C 232.770 317.933,233.760 317.789,234.200 317.600 L 235.000 317.256 234.200 317.281 C 233.760 317.294,232.770 317.438,232.000 317.600 M176.529 317.900 C 183.089 317.962,193.709 317.961,200.129 317.900 C 206.548 317.838,201.180 317.787,188.200 317.788 C 175.220 317.788,169.968 317.838,176.529 317.900 M150.118 318.298 C 151.833 318.373,154.533 318.372,156.118 318.297 C 157.703 318.221,156.300 318.159,153.000 318.160 C 149.700 318.161,148.403 318.222,150.118 318.298 M220.300 318.298 C 222.115 318.372,225.085 318.372,226.900 318.298 C 228.715 318.223,227.230 318.163,223.600 318.163 C 219.970 318.163,218.485 318.223,220.300 318.298 " stroke="none" fill="#9c948c" fill-rule="evenodd"></path></g></svg>